<?xml version="1.0" encoding="utf-8"?>
<!-- Generator: Adobe Illustrator 24.1.0, SVG Export Plug-In . SVG Version: 6.00 Build 0)  -->
<svg version="1.1" id="Capa_1" xmlns="http://www.w3.org/2000/svg" xmlns:xlink="http://www.w3.org/1999/xlink" x="0px" y="0px"
	 viewBox="0 0 1482.64 454.71" style="enable-background:new 0 0 1482.64 454.71;" xml:space="preserve">
<style type="text/css">
	.st0{clip-path:url(#SVGID_2_);fill:#FEFBF8;}
	.st1{fill:#FEFBF8;}
	.st2{fill:#DDAE69;}
	.st3{fill:#192E4E;}
	.st4{clip-path:url(#SVGID_4_);}
</style>
<g>
	<g>
		<defs>
			<rect id="SVGID_1_" x="71.27" y="40.17" width="1340.09" height="374.36"/>
		</defs>
		<clipPath id="SVGID_2_">
			<use xlink:href="#SVGID_1_"  style="overflow:visible;"/>
		</clipPath>
		<path class="st0" d="M392.88,322.75h-63.35c-0.16-0.25-0.37-0.47-0.65-0.62c-0.29-0.17-0.61-0.25-0.93-0.25
			c-0.62,0-1.22,0.31-1.57,0.87h-37.32l4.28-7.41h38.78c0.13,0.15,0.28,0.27,0.46,0.38c0.29,0.17,0.61,0.25,0.92,0.25
			c0.53,0,1.04-0.22,1.39-0.63h47.86l9.2,5.31c0.29,0.16,0.61,0.26,0.92,0.26c0.64,0,1.26-0.34,1.61-0.93
			c0.51-0.88,0.21-2.02-0.68-2.52l-9.19-5.31l-44.72-77.45l4.28-7.41l18.66,32.32l-1.3,2.25c-0.51,0.88-0.21,2.02,0.68,2.53
			c0.29,0.18,0.61,0.25,0.93,0.25c0.64,0,1.26-0.33,1.6-0.92l0.23-0.4l31.11,53.88c0.66,1.16,0.66,2.57,0,3.72
			C395.42,322.05,394.2,322.75,392.88,322.75 M280.5,322.75h-44.72v-3.69c0-0.7-0.39-1.31-0.96-1.63c0.29-0.16,0.53-0.39,0.7-0.69
			l0.8-1.39h48.45L280.5,322.75 M232.07,322.75h-44.71l-4.28-7.41h48.44l0.8,1.39c0.17,0.3,0.42,0.54,0.71,0.69
			c-0.57,0.32-0.96,0.93-0.96,1.63V322.75 M178.8,322.75H74.98c-1.32,0-2.54-0.7-3.21-1.84c-0.65-1.14-0.65-2.56,0-3.72l51.91-89.91
			l4.28,7.41l-44.72,77.45l-9.19,5.31c-0.89,0.51-1.19,1.64-0.68,2.52c0.35,0.59,0.97,0.93,1.61,0.93c0.31,0,0.63-0.09,0.92-0.26
			l9.2-5.31h48.06c0.04,0.19,0.11,0.39,0.21,0.57l1.85,3.2c0.34,0.6,0.97,0.93,1.61,0.93c0.31,0,0.63-0.08,0.93-0.25
			c0.89-0.52,1.19-1.64,0.67-2.53l-1.11-1.92h37.19L178.8,322.75 M105.35,261.79c-0.32,0-0.64,0.08-0.93,0.25
			c-0.89,0.51-1.19,1.64-0.68,2.53l1.85,3.21c0.34,0.6,0.97,0.93,1.6,0.93c0.31,0,0.63-0.08,0.93-0.25
			c0.89-0.52,1.19-1.65,0.68-2.54l-1.85-3.21C106.61,262.12,105.98,261.79,105.35,261.79 M335.62,227.28l-24.22-41.96l0.54-0.93
			l5.61-3.24l22.36,38.72L335.62,227.28 M132.24,227.28l-4.28-7.41l22.36-38.72l5.6,3.24l0.54,0.94L132.24,227.28 M310.09,181.18
			H309l-24.22-41.96h8.55l22.36,38.73L310.09,181.18 M158.86,181.18h-1.09l-5.6-3.23l22.36-38.72h8.55L158.86,181.18 M289.05,131.81
			h-8.55l-18.96-32.85h1.6c1.03,0,1.85-0.82,1.85-1.85c0-1.01-0.83-1.85-1.85-1.85h-3.71c-0.01,0-0.02,0-0.03,0l-23.61-40.89V43.75
			c0-1.03-0.83-1.85-1.85-1.85c-1.03,0-1.86,0.83-1.86,1.85v10.62l-44.71,77.43h-8.55l19.63-34c0.28,0.68,0.94,1.15,1.72,1.15h3.7
			c1.02,0,1.85-0.82,1.85-1.85c0-1.01-0.83-1.85-1.85-1.85h-3.7c-0.09,0-0.17,0.01-0.25,0.02l30.82-53.37
			c0.66-1.15,1.93-1.73,3.21-1.73c1.27,0,2.55,0.58,3.21,1.73L289.05,131.81"/>
		<path class="st0" d="M308.99,273.39h-48.45l2.14-3.71h40.68l5.37,1.89c0.01,0.48,0.21,0.95,0.56,1.29L308.99,273.39
			 M256.27,273.39h-13.54l0.7-3.71h14.99L256.27,273.39 M240.84,273.39h-13.77l-0.7-3.71h15.16L240.84,273.39 M225.19,273.39h-13.61
			l-2.14-3.71h15.05L225.19,273.39 M207.3,273.39h-48.44l-1.16-2.01c0.17,0.18,0.41,0.28,0.66,0.28c0.1,0,0.2-0.02,0.3-0.05
			l5.51-1.92h40.99L207.3,273.39 M157.47,270.98l-1.01-1.75l24.22-41.95l2.14,3.71l-20.04,34.7l-5.03,4.34
			C157.48,270.27,157.37,270.64,157.47,270.98 M310.07,269.76l-5.26-4.51l-19.78-34.27l2.14-3.7l24.22,41.96l-0.3,0.52
			c-0.17-0.05-0.34-0.07-0.51-0.07C310.41,269.69,310.24,269.71,310.07,269.76 M282.9,227.28l-7.58-13.13l2.85-2.46l6.86,11.88
			L282.9,227.28 M184.96,227.28l-2.14-3.7l6.93-12l2.87,2.44L184.96,227.28 M274.38,212.53l-7.6-13.17l3.55-1.24l6.9,11.95
			L274.38,212.53 M193.55,212.4l-2.87-2.44l6.87-11.89l3.55,1.25L193.55,212.4 M265.84,197.73l-7.42-12.85h4.27l6.7,11.61
			L265.84,197.73 M202.05,197.68l-3.56-1.25l6.67-11.55h4.28L202.05,197.68 M260.55,181.18h-4.27l-19.88-34.44l-1.23-6.59
			c0.27-0.24,0.47-0.56,0.56-0.93h0.6L260.55,181.18 M211.58,181.18h-4.28l24.22-41.96h0.6c0.1,0.39,0.32,0.73,0.62,0.98l-1.19,6.37
			L211.58,181.18"/>
		<path class="st0" d="M233.93,414.53c-1.33,0-2.55-0.71-3.21-1.85l-31.32-54.25c0.73-0.25,1.24-0.94,1.24-1.75
			c0-1.01-0.83-1.85-1.85-1.85h-1.47l-18.52-32.08l-4.28-7.41l-22.35-38.71l3.21-1.85c0.89-0.52,1.19-1.64,0.68-2.54
			c-0.35-0.59-0.97-0.92-1.61-0.92c-0.31,0-0.63,0.08-0.92,0.25l-3.21,1.85l-22.36-38.73l-4.28-7.41l-51.91-89.92
			c-0.65-1.14-0.65-2.55,0-3.71c0.67-1.14,1.89-1.85,3.21-1.85h103.83h8.55h44.71v6.95c0,0.16,0.02,0.31,0.06,0.46h-0.6h-48.44
			h-8.55h-37.64l1.72-2.97c0.51-0.88,0.21-2.02-0.67-2.54c-0.29-0.17-0.61-0.25-0.92-0.25c-0.64,0-1.27,0.33-1.62,0.93l-1.85,3.21
			c-0.29,0.51-0.31,1.11-0.11,1.62H85.1l-9.2-5.31c-0.29-0.17-0.6-0.24-0.91-0.24c-0.64,0-1.27,0.33-1.62,0.93
			c-0.51,0.89-0.21,2.02,0.68,2.53l9.2,5.31l24.48,42.4c-0.12-0.02-0.24-0.04-0.36-0.04c-0.64,0-1.26,0.33-1.61,0.93l-1.85,3.2
			c-0.51,0.89-0.21,2.02,0.68,2.53c0.29,0.18,0.61,0.26,0.93,0.26c0.64,0,1.26-0.34,1.6-0.93l1.85-3.21
			c0.06-0.11,0.11-0.22,0.15-0.33l18.84,32.63l4.28,7.41l24.22,41.95l1.01,1.75c0.02,0.08,0.05,0.15,0.09,0.22
			c0.04,0.07,0.09,0.13,0.14,0.19l1.16,2.01l24.22,41.94l4.28,7.41l44.71,77.45v10.63c0,1.03,0.83,1.85,1.86,1.85
			c1.02,0,1.85-0.83,1.85-1.85v-10.62l44.72-77.46l4.28-7.41l24.22-41.94l0.3-0.52c0.11,0.1,0.23,0.2,0.37,0.28l6.02,3.48
			l-22.35,38.71l-4.28,7.41l-18.52,32.08h-1.36c-1.02,0-1.85,0.84-1.85,1.85c0,0.78,0.47,1.44,1.15,1.72l-31.34,54.28
			C236.47,413.83,235.25,414.53,233.93,414.53 M317.54,273.42l-6.02-3.48c-0.14-0.08-0.28-0.14-0.42-0.18l0.3-0.52l24.23-41.96
			l4.28-7.41l18.92-32.77c0.35,0.34,0.82,0.53,1.31,0.53c0.31,0,0.63-0.07,0.92-0.25c0.89-0.51,1.19-1.64,0.68-2.52l-0.8-1.4
			l23.69-41.03l9.2-5.31c0.89-0.51,1.19-1.64,0.68-2.53c-0.35-0.6-0.98-0.93-1.62-0.93c-0.31,0-0.62,0.08-0.91,0.24l-9.2,5.31
			h-89.43h-8.55h-48.45h-0.6c0.04-0.15,0.06-0.3,0.06-0.46v-6.95h44.71h8.55h37.82c0.04,0.12,0.09,0.24,0.16,0.35l1.85,3.21
			c0.34,0.6,0.97,0.92,1.61,0.92c0.31,0,0.63-0.07,0.92-0.24c0.88-0.52,1.19-1.64,0.68-2.54l-0.99-1.71h61.78
			c1.32,0,2.54,0.71,3.21,1.85c0.66,1.16,0.66,2.56,0,3.71l-51.91,89.92l-4.28,7.41L317.54,273.42"/>
	</g>
	<path class="st1" d="M234.82,317.43c-0.27-0.15-0.57-0.23-0.89-0.23c-0.33,0-0.63,0.08-0.9,0.23c-0.29-0.16-0.54-0.39-0.71-0.69
		l-0.8-1.39l-24.21-41.94l-2.14-3.71l-6.88-11.92l3.56-1.24l7.6,13.16l2.14,3.71l20.18,34.94l1.29,6.86
		c0.08,0.44,0.47,0.76,0.91,0.76c0.44,0,0.83-0.32,0.91-0.76l1.32-7.03l20.08-34.78l2.14-3.71l7.59-13.14l3.55,1.25l-6.87,11.89
		l-2.14,3.71l-24.21,41.94l-0.8,1.39C235.36,317.03,235.11,317.27,234.82,317.43 M270.5,256.16l-3.55-1.25l7.61-13.18l2.86,2.45
		L270.5,256.16 M197.34,256.14l-6.87-11.91l2.85-2.46l7.58,13.13L197.34,256.14 M189.52,242.6l-6.7-11.61l-2.14-3.71l-24.22-41.95
		l-0.54-0.94l0.42,0.24c0.29,0.16,0.61,0.25,0.92,0.25c0.31,0,0.61-0.08,0.88-0.23l4.32,3.68l20.35,35.24l2.14,3.7l7.42,12.85
		L189.52,242.6 M278.35,242.55l-2.86-2.45l7.4-12.82l2.13-3.7l20.45-35.42l4.13-3.56c0.29,0.18,0.63,0.28,0.98,0.28
		c0.31,0,0.63-0.08,0.93-0.25l0.42-0.24l-0.54,0.93l-24.23,41.96l-2.14,3.7L278.35,242.55 M302.64,184.88h-39.95h-4.27h-14.89
		l-0.69-3.7h13.44h4.27H309h1.09l-0.43,0.25c-0.51,0.29-0.82,0.79-0.91,1.32L302.64,184.88 M241.64,184.88h-15.35l0.69-3.7h13.97
		L241.64,184.88 M224.4,184.88h-14.96h-4.28h-39.52l-6.57-2.31c-0.12-0.47-0.42-0.89-0.87-1.15l-0.43-0.25h1.09h48.44h4.28h13.51
		L224.4,184.88"/>
	<path class="st1" d="M310.59,184.88c-0.35,0-0.68-0.09-0.98-0.28l0.53-0.46c0.33-0.28,0.42-0.78,0.2-1.17
		c-0.17-0.29-0.48-0.46-0.8-0.46c-0.1,0-0.21,0.02-0.31,0.05l-0.48,0.17c0.08-0.54,0.4-1.03,0.91-1.32l0.43-0.25l5.59-3.23
		l28.43-16.41c0.34,0.28,0.76,0.43,1.19,0.43c0.31,0,0.63-0.08,0.92-0.25c0.69-0.4,1.03-1.18,0.9-1.92l35.63-20.57l9.2-5.31
		c0.29-0.17,0.6-0.24,0.91-0.24c0.64,0,1.27,0.33,1.62,0.93c0.51,0.89,0.21,2.02-0.68,2.53l-9.2,5.31l-67.06,38.72l-5.61,3.24
		l-0.42,0.24C311.22,184.8,310.9,184.88,310.59,184.88"/>
	<path class="st1" d="M232.75,140.2c-0.3-0.25-0.52-0.59-0.62-0.98c-0.04-0.15-0.06-0.3-0.06-0.46v-6.95V98.96h1.42
		c1.02,0,1.85-0.82,1.85-1.85c0-1.01-0.83-1.85-1.85-1.85h-1.42V54.37V43.75c0-1.03,0.83-1.85,1.86-1.85c1.02,0,1.85,0.83,1.85,1.85
		v10.61v77.44v6.95c0,0.16-0.02,0.31-0.06,0.46c-0.09,0.36-0.29,0.68-0.56,0.93l-0.29-1.55c-0.08-0.44-0.5-0.66-0.91-0.66
		c-0.42,0-0.83,0.22-0.91,0.66L232.75,140.2"/>
	<path class="st1" d="M157.26,184.88c-0.31,0-0.63-0.08-0.92-0.25l-0.42-0.24l-5.6-3.24l-28.23-16.3l1.7-2.94
		c0.05-0.09,0.1-0.19,0.13-0.28l28.25,16.31l5.6,3.23l0.43,0.25c0.45,0.26,0.75,0.68,0.87,1.15l-1.02-0.36
		c-0.1-0.04-0.21-0.05-0.31-0.05c-0.32,0-0.63,0.17-0.8,0.46c-0.22,0.39-0.14,0.88,0.2,1.18l1.01,0.86
		C157.88,184.8,157.57,184.88,157.26,184.88 M118.88,163l-35.63-20.57l-9.2-5.31c-0.89-0.51-1.19-1.64-0.68-2.53
		c0.35-0.6,0.97-0.93,1.62-0.93c0.31,0,0.63,0.08,0.91,0.24l9.2,5.31l35.65,20.58c-0.06,0.08-0.12,0.16-0.17,0.25L118.88,163"/>
	<path class="st1" d="M74.98,320.91c-0.64,0-1.26-0.34-1.61-0.93c-0.51-0.88-0.21-2.02,0.68-2.52l9.19-5.31l35.97-20.77l1.19,2.07
		c0.26,0.44,0.67,0.74,1.14,0.86L85.1,315.34l-9.2,5.31C75.61,320.82,75.29,320.91,74.98,320.91 M123.8,293
		c0.12-0.46,0.07-0.96-0.19-1.41l-1.19-2.07l27.89-16.1l3.21-1.85c0.29-0.17,0.6-0.25,0.92-0.25c0.64,0,1.27,0.33,1.61,0.92
		c0.51,0.9,0.21,2.02-0.68,2.54l-3.21,1.85L123.8,293"/>
	<path class="st1" d="M233.93,412.68c-1.03,0-1.86-0.83-1.86-1.85V400.2v-77.45v-3.69c0-0.7,0.39-1.31,0.96-1.63
		c0.27-0.15,0.57-0.23,0.9-0.23c0.32,0,0.63,0.08,0.89,0.23c0.57,0.32,0.96,0.93,0.96,1.63v3.69v77.46v10.62
		C235.78,411.85,234.95,412.68,233.93,412.68"/>
	<path class="st1" d="M392.87,320.91c-0.31,0-0.63-0.09-0.92-0.26l-9.2-5.31l-67.06-38.71l-6.02-3.48
		c-0.14-0.08-0.26-0.17-0.37-0.28c-0.35-0.34-0.55-0.81-0.56-1.29l1.2,0.42c0.1,0.03,0.2,0.05,0.3,0.05c0.32,0,0.64-0.17,0.8-0.46
		c0.22-0.39,0.14-0.87-0.2-1.17l-0.77-0.66c0.16-0.05,0.34-0.07,0.51-0.07c0.17,0,0.34,0.02,0.51,0.07c0.14,0.04,0.29,0.1,0.42,0.18
		l6.02,3.48l67.08,38.73l9.19,5.31c0.89,0.51,1.19,1.64,0.68,2.52C394.13,320.57,393.51,320.91,392.87,320.91"/>
	<path class="st1" d="M233.96,315.95c-0.45,0-0.83-0.32-0.91-0.76l-1.29-6.86l-6.57-34.94l-0.7-3.71l-3.72-19.78l-18.94,6.62
		l-3.56,1.24l-34.11,11.92l-5.51,1.92c-0.1,0.04-0.2,0.05-0.3,0.05c-0.25,0-0.49-0.1-0.66-0.28c-0.05-0.05-0.1-0.12-0.14-0.19
		c-0.04-0.07-0.07-0.14-0.09-0.22c-0.09-0.34,0.01-0.71,0.29-0.95l5.03-4.34l26.74-23.09l2.85-2.46l15.33-13.24l-15.1-12.87
		l-2.87-2.44l-27.27-23.24l-4.32-3.68l-1.01-0.86c-0.34-0.3-0.42-0.79-0.2-1.18c0.17-0.29,0.48-0.46,0.8-0.46
		c0.1,0,0.21,0.02,0.31,0.05l1.02,0.36l6.57,2.31l32.86,11.55l3.56,1.25l18.73,6.58l3.62-19.38l0.69-3.7l6.47-34.6l1.19-6.37
		l0.3-1.61c0.08-0.44,0.5-0.66,0.91-0.66c0.41,0,0.83,0.22,0.91,0.66l0.29,1.55l1.23,6.59l6.44,34.44l0.69,3.7l3.62,19.38
		l18.69-6.53l3.55-1.24l33.25-11.61l6.11-2.13l0.48-0.17c0.1-0.04,0.21-0.05,0.31-0.05c0.32,0,0.63,0.17,0.8,0.46
		c0.22,0.39,0.13,0.89-0.2,1.17l-0.53,0.46l-4.13,3.56l-27.31,23.54l-2.85,2.46l-15,12.93l15.18,13.02l2.86,2.45l26.46,22.7
		l5.26,4.51l0.77,0.66c0.34,0.3,0.42,0.78,0.2,1.17c-0.17,0.3-0.48,0.46-0.8,0.46c-0.1,0-0.2-0.02-0.3-0.05l-1.2-0.42l-5.37-1.89
		l-33.81-11.89l-3.55-1.25l-18.86-6.64l-3.72,19.78l-0.7,3.71l-6.54,34.78l-1.32,7.03C234.79,315.63,234.41,315.95,233.96,315.95
		 M227.08,273.39l6.89,36.61l6.88-36.61l0.7-3.71l3.98-21.17c0.05-0.27,0.21-0.5,0.45-0.64c0.14-0.08,0.3-0.12,0.46-0.12
		c0.1,0,0.21,0.02,0.31,0.05l20.2,7.11l3.55,1.25l35.4,12.45l-28.49-24.43l-2.86-2.45l-16.26-13.94c-0.2-0.18-0.32-0.44-0.32-0.71
		c0-0.27,0.12-0.53,0.32-0.7l16.08-13.86l2.85-2.46l28.01-24.14l-34.91,12.19l-3.55,1.24l-20.04,7c-0.1,0.04-0.21,0.06-0.31,0.06
		c-0.16,0-0.32-0.04-0.46-0.13c-0.23-0.13-0.4-0.37-0.44-0.62l-3.88-20.78l-0.69-3.7l-6.98-37.37l-6.99,37.37l-0.69,3.7l-3.89,20.78
		c-0.05,0.26-0.21,0.5-0.45,0.62c-0.14,0.09-0.29,0.13-0.45,0.13c-0.1,0-0.21-0.02-0.32-0.06l-20.07-7.05l-3.55-1.25l-35.42-12.45
		l28.55,24.34l2.87,2.44l16.18,13.79c0.21,0.18,0.33,0.44,0.33,0.71c0,0.26-0.12,0.52-0.32,0.7l-16.41,14.18l-2.85,2.46
		l-27.82,24.03l34.7-12.12l3.56-1.24l20.28-7.09c0.1-0.04,0.21-0.05,0.31-0.05c0.17,0,0.33,0.04,0.46,0.12
		c0.24,0.14,0.4,0.36,0.45,0.64l3.98,21.17L227.08,273.39"/>
	<path class="st1" d="M302.52,358.53h-3.71c-1.02,0-1.85-0.83-1.85-1.85c0-1.01,0.83-1.85,1.85-1.85h3.71
		c1.02,0,1.85,0.84,1.85,1.85C304.37,357.71,303.54,358.53,302.52,358.53 M287.7,358.53H284c-1.03,0-1.85-0.83-1.85-1.85
		c0-1.01,0.83-1.85,1.85-1.85h3.7c1.03,0,1.85,0.84,1.85,1.85C289.55,357.71,288.73,358.53,287.7,358.53 M272.88,358.53h-3.7
		c-0.25,0-0.48-0.05-0.7-0.14c-0.67-0.28-1.15-0.94-1.15-1.72c0-1.01,0.83-1.85,1.85-1.85h1.36h2.35c1.03,0,1.85,0.84,1.85,1.85
		C274.73,357.71,273.91,358.53,272.88,358.53 M258.06,358.53h-3.71c-1.02,0-1.85-0.83-1.85-1.85c0-1.01,0.83-1.85,1.85-1.85h3.71
		c1.03,0,1.85,0.84,1.85,1.85C259.92,357.71,259.09,358.53,258.06,358.53 M243.25,358.53h-3.7c-1.02,0-1.85-0.83-1.85-1.85
		c0-1.01,0.83-1.85,1.85-1.85h3.7c1.03,0,1.85,0.84,1.85,1.85C245.1,357.71,244.27,358.53,243.25,358.53 M228.43,358.53h-3.71
		c-1.03,0-1.85-0.83-1.85-1.85c0-1.01,0.83-1.85,1.85-1.85h3.71c1.02,0,1.85,0.84,1.85,1.85
		C230.28,357.71,229.45,358.53,228.43,358.53 M213.61,358.53h-3.71c-1.02,0-1.85-0.83-1.85-1.85c0-1.01,0.83-1.85,1.85-1.85h3.71
		c1.02,0,1.85,0.84,1.85,1.85C215.47,357.71,214.63,358.53,213.61,358.53 M198.79,358.53h-3.7c-1.02,0-1.85-0.83-1.85-1.85
		c0-1.01,0.83-1.85,1.85-1.85h2.23h1.47c1.03,0,1.85,0.84,1.85,1.85c0,0.81-0.52,1.5-1.24,1.75
		C199.21,358.5,199,358.53,198.79,358.53 M183.97,358.53h-3.7c-1.03,0-1.85-0.83-1.85-1.85c0-1.01,0.83-1.85,1.85-1.85h3.7
		c1.03,0,1.85,0.84,1.85,1.85C185.82,357.71,185,358.53,183.97,358.53 M169.15,358.53h-3.71c-1.02,0-1.85-0.83-1.85-1.85
		c0-1.01,0.83-1.85,1.85-1.85h3.71c1.02,0,1.85,0.84,1.85,1.85C171.01,357.71,170.18,358.53,169.15,358.53 M159.06,358.53
		c-0.64,0-1.26-0.33-1.61-0.93l-1.85-3.2c-0.51-0.9-0.21-2.02,0.68-2.53c0.29-0.17,0.61-0.26,0.93-0.26c0.63,0,1.25,0.33,1.59,0.93
		l1.85,3.21c0.51,0.89,0.21,2.01-0.68,2.53C159.7,358.45,159.38,358.53,159.06,358.53 M311.28,354.46c-0.32,0-0.64-0.08-0.93-0.25
		c-0.88-0.51-1.19-1.65-0.68-2.53l1.85-3.21c0.34-0.6,0.97-0.93,1.61-0.93c0.32,0,0.63,0.08,0.93,0.25
		c0.88,0.52,1.19,1.64,0.68,2.53l-1.85,3.21C312.54,354.13,311.92,354.46,311.28,354.46 M151.65,345.71c-0.64,0-1.26-0.33-1.61-0.93
		l-1.85-3.21c-0.51-0.89-0.21-2.02,0.68-2.52c0.29-0.17,0.61-0.25,0.92-0.25c0.64,0,1.26,0.33,1.61,0.93l1.85,3.2
		c0.51,0.88,0.21,2.02-0.68,2.53C152.29,345.62,151.97,345.71,151.65,345.71 M318.69,341.62c-0.33,0-0.64-0.08-0.93-0.25
		c-0.88-0.51-1.19-1.64-0.67-2.52l1.85-3.21c0.34-0.6,0.97-0.93,1.61-0.93c0.31,0,0.63,0.08,0.92,0.24
		c0.89,0.52,1.19,1.65,0.68,2.54l-1.86,3.21C319.95,341.29,319.33,341.62,318.69,341.62 M144.25,332.87c-0.64,0-1.26-0.33-1.61-0.92
		l-1.85-3.21c-0.51-0.89-0.21-2.02,0.67-2.53c0.29-0.17,0.61-0.25,0.93-0.25c0.64,0,1.26,0.33,1.6,0.92l1.85,3.21
		c0.51,0.89,0.21,2.02-0.68,2.54C144.88,332.79,144.56,332.87,144.25,332.87 M326.1,328.79c-0.32,0-0.64-0.08-0.93-0.25
		c-0.88-0.51-1.19-1.64-0.68-2.53l1.85-3.21c0.01-0.02,0.02-0.04,0.04-0.06c0.35-0.56,0.95-0.87,1.57-0.87
		c0.32,0,0.63,0.08,0.93,0.25c0.27,0.16,0.49,0.37,0.65,0.62c0.35,0.56,0.39,1.3,0.03,1.9l-1.85,3.21
		C327.36,328.46,326.74,328.79,326.1,328.79 M136.83,320.04c-0.64,0-1.26-0.33-1.61-0.93l-1.85-3.2c-0.1-0.18-0.18-0.37-0.21-0.57
		c-0.15-0.76,0.18-1.56,0.89-1.97c0.29-0.17,0.6-0.24,0.92-0.24c0.64,0,1.27,0.33,1.62,0.93l0.74,1.29l1.11,1.92
		c0.51,0.89,0.21,2.01-0.67,2.53C137.47,319.95,137.15,320.04,136.83,320.04 M333.5,315.96c-0.31,0-0.63-0.08-0.92-0.25
		c-0.18-0.1-0.33-0.23-0.46-0.38c-0.52-0.58-0.63-1.45-0.22-2.16l1.85-3.21c0.34-0.59,0.96-0.93,1.6-0.93
		c0.32,0,0.64,0.08,0.93,0.25c0.89,0.51,1.19,1.64,0.67,2.53l-1.85,3.21c-0.06,0.11-0.13,0.21-0.21,0.31
		C334.54,315.75,334.03,315.96,333.5,315.96 M129.42,307.21c-0.64,0-1.26-0.33-1.61-0.92l-1.85-3.22c-0.51-0.88-0.21-2.02,0.68-2.53
		c0.29-0.17,0.61-0.25,0.93-0.25c0.64,0,1.26,0.33,1.6,0.93l1.85,3.22c0.51,0.87,0.21,2.01-0.68,2.52
		C130.06,307.12,129.74,307.21,129.42,307.21 M340.91,303.12c-0.31,0-0.63-0.08-0.93-0.25c-0.88-0.51-1.19-1.64-0.68-2.53l1.85-3.21
		c0.35-0.6,0.97-0.92,1.61-0.92c0.31,0,0.63,0.08,0.92,0.24c0.89,0.52,1.19,1.65,0.68,2.54l-1.85,3.21
		C342.18,302.79,341.56,303.12,340.91,303.12 M122.02,294.37c-0.16,0-0.32-0.02-0.48-0.06c-0.46-0.12-0.87-0.42-1.14-0.86
		l-1.19-2.07l-0.66-1.14c-0.51-0.88-0.2-2.02,0.69-2.53c0.29-0.17,0.61-0.25,0.92-0.25c0.64,0,1.26,0.33,1.6,0.93l0.66,1.14
		l1.19,2.07c0.26,0.44,0.31,0.95,0.19,1.41c-0.12,0.46-0.42,0.87-0.86,1.12C122.65,294.3,122.33,294.37,122.02,294.37 M348.32,290.3
		c-0.32,0-0.63-0.08-0.93-0.25c-0.88-0.51-1.19-1.65-0.68-2.53l1.86-3.21c0.34-0.6,0.97-0.94,1.61-0.94c0.32,0,0.63,0.08,0.93,0.25
		c0.89,0.51,1.19,1.65,0.68,2.54l-1.86,3.2C349.59,289.96,348.96,290.3,348.32,290.3 M114.61,281.54c-0.64,0-1.26-0.33-1.61-0.93
		l-1.85-3.2c-0.51-0.9-0.21-2.02,0.68-2.54c0.29-0.17,0.6-0.24,0.91-0.24c0.64,0,1.27,0.33,1.62,0.93l1.85,3.21
		c0.51,0.89,0.21,2.02-0.68,2.52C115.24,281.46,114.93,281.54,114.61,281.54 M355.73,277.46c-0.31,0-0.63-0.07-0.93-0.24
		c-0.89-0.52-1.19-1.65-0.68-2.54l1.85-3.21c0.34-0.59,0.96-0.92,1.6-0.92c0.32,0,0.64,0.08,0.93,0.25
		c0.89,0.52,1.19,1.64,0.68,2.54l-1.85,3.2C356.99,277.12,356.37,277.46,355.73,277.46 M107.2,268.71c-0.64,0-1.26-0.33-1.6-0.93
		l-1.85-3.21c-0.51-0.89-0.21-2.02,0.68-2.53c0.29-0.17,0.61-0.25,0.93-0.25c0.64,0,1.26,0.33,1.61,0.93l1.85,3.21
		c0.51,0.89,0.21,2.02-0.68,2.54C107.83,268.63,107.51,268.71,107.2,268.71 M363.14,264.63c-0.31,0-0.64-0.07-0.93-0.25
		c-0.89-0.51-1.19-1.64-0.68-2.53l1.3-2.25l0.55-0.96c0.35-0.6,0.97-0.93,1.61-0.93c0.31,0,0.63,0.08,0.92,0.24
		c0.88,0.52,1.19,1.65,0.68,2.54l-1.62,2.82l-0.23,0.4C364.41,264.3,363.78,264.63,363.14,264.63 M99.79,255.87
		c-0.64,0-1.26-0.33-1.61-0.92l-1.85-3.21c-0.51-0.88-0.21-2.02,0.68-2.54c0.29-0.17,0.61-0.24,0.92-0.24
		c0.64,0,1.27,0.33,1.61,0.93l1.85,3.21c0.51,0.88,0.21,2.02-0.68,2.53C100.43,255.79,100.11,255.87,99.79,255.87 M370.55,251.8
		c-0.32,0-0.64-0.08-0.93-0.25c-0.88-0.51-1.19-1.65-0.68-2.53l1.85-3.21c0.34-0.6,0.97-0.93,1.61-0.93c0.31,0,0.63,0.08,0.92,0.25
		c0.88,0.52,1.19,1.64,0.68,2.54l-1.85,3.21C371.81,251.47,371.19,251.8,370.55,251.8 M92.38,243.04c-0.64,0-1.26-0.33-1.6-0.93
		l-1.85-3.2c-0.51-0.88-0.21-2.03,0.68-2.54c0.29-0.17,0.61-0.25,0.93-0.25c0.64,0,1.26,0.33,1.61,0.92l1.85,3.21
		c0.51,0.89,0.21,2.03-0.68,2.54C93.01,242.96,92.7,243.04,92.38,243.04 M377.96,238.96c-0.32,0-0.64-0.07-0.93-0.24
		c-0.88-0.52-1.19-1.64-0.67-2.54l1.85-3.21c0.34-0.59,0.96-0.93,1.6-0.93c0.32,0,0.64,0.08,0.93,0.25
		c0.89,0.51,1.19,1.64,0.68,2.53l-1.86,3.21C379.22,238.63,378.6,238.96,377.96,238.96 M84.97,230.2c-0.64,0-1.26-0.33-1.6-0.92
		l-0.84-1.46c-0.33-0.57-0.33-1.27,0-1.85l1.01-1.75c0.34-0.59,0.96-0.93,1.6-0.93c0.32,0,0.64,0.08,0.93,0.25
		c0.89,0.51,1.19,1.64,0.68,2.53l-0.47,0.83l0.31,0.53c0.51,0.88,0.21,2.02-0.68,2.54C85.61,230.13,85.29,230.2,84.97,230.2
		 M382.35,226.13c-0.64,0-1.26-0.33-1.61-0.92l-1.86-3.21c-0.51-0.88-0.2-2.02,0.68-2.54c0.29-0.17,0.61-0.25,0.93-0.25
		c0.64,0,1.27,0.33,1.61,0.93l1.86,3.21c0.51,0.89,0.21,2.02-0.68,2.53C382.99,226.05,382.67,226.13,382.35,226.13 M90.69,217.37
		c-0.31,0-0.63-0.08-0.92-0.25c-0.89-0.51-1.19-1.64-0.68-2.54l1.85-3.2c0.34-0.6,0.96-0.93,1.6-0.93c0.31,0,0.63,0.08,0.93,0.25
		c0.89,0.52,1.2,1.65,0.68,2.54l-1.85,3.2C91.95,217.04,91.33,217.37,90.69,217.37 M374.94,213.3c-0.64,0-1.26-0.34-1.61-0.93
		l-1.85-3.2c-0.51-0.9-0.21-2.03,0.68-2.54c0.29-0.17,0.61-0.25,0.93-0.25c0.64,0,1.26,0.33,1.61,0.93l1.85,3.2
		c0.51,0.89,0.21,2.02-0.68,2.54C375.57,213.22,375.26,213.3,374.94,213.3 M98.1,204.54c-0.31,0-0.63-0.08-0.92-0.25
		c-0.89-0.51-1.19-1.65-0.68-2.54l1.85-3.21c0.34-0.59,0.97-0.92,1.61-0.92c0.31,0,0.63,0.08,0.92,0.25
		c0.89,0.51,1.19,1.64,0.68,2.53l-1.85,3.22C99.36,204.21,98.74,204.54,98.1,204.54 M367.53,200.46c-0.64,0-1.26-0.33-1.61-0.92
		l-1.85-3.21c-0.51-0.89-0.21-2.02,0.68-2.54c0.29-0.17,0.6-0.25,0.92-0.25c0.64,0,1.27,0.33,1.62,0.93l1.85,3.21
		c0.52,0.88,0.21,2.02-0.67,2.53C368.16,200.38,367.85,200.46,367.53,200.46 M105.51,191.71c-0.32,0-0.64-0.08-0.93-0.26
		c-0.88-0.51-1.19-1.64-0.68-2.53l1.85-3.2c0.34-0.6,0.97-0.93,1.61-0.93c0.12,0,0.24,0.01,0.36,0.04c0.19,0.04,0.38,0.11,0.56,0.21
		c0.78,0.45,1.11,1.38,0.83,2.2c-0.04,0.11-0.09,0.22-0.15,0.33l-1.85,3.21C106.78,191.37,106.15,191.71,105.51,191.71
		 M360.12,187.63c-0.48,0-0.95-0.19-1.31-0.53c-0.12-0.11-0.22-0.24-0.3-0.39l-1.85-3.22c-0.51-0.87-0.21-2.01,0.68-2.53
		c0.29-0.17,0.6-0.24,0.92-0.24c0.64,0,1.27,0.33,1.62,0.93l1.04,1.81l0.8,1.4c0.51,0.88,0.21,2.02-0.68,2.52
		C360.75,187.56,360.43,187.63,360.12,187.63 M112.92,178.87c-0.32,0-0.63-0.08-0.93-0.25c-0.88-0.51-1.19-1.64-0.68-2.53l1.85-3.21
		c0.34-0.6,0.96-0.93,1.6-0.93c0.31,0,0.63,0.08,0.93,0.25c0.88,0.52,1.19,1.64,0.68,2.54l-1.85,3.21
		C114.19,178.54,113.56,178.87,112.92,178.87 M352.71,174.8c-0.64,0-1.26-0.33-1.61-0.93l-1.85-3.2c-0.51-0.9-0.21-2.02,0.68-2.54
		c0.29-0.17,0.61-0.25,0.93-0.25c0.64,0,1.26,0.33,1.61,0.93l1.85,3.2c0.51,0.89,0.21,2.02-0.68,2.54
		C353.34,174.72,353.02,174.8,352.71,174.8 M120.33,166.04c-0.31,0-0.63-0.08-0.93-0.25c-0.88-0.52-1.19-1.65-0.68-2.54l0.15-0.26
		l1.71-2.95c0.05-0.09,0.11-0.17,0.17-0.25c0.36-0.44,0.89-0.67,1.43-0.67c0.32,0,0.64,0.08,0.93,0.25c0.79,0.45,1.12,1.41,0.8,2.25
		c-0.04,0.1-0.08,0.19-0.13,0.28l-1.7,2.94l-0.15,0.26C121.59,165.71,120.97,166.04,120.33,166.04 M345.3,161.96
		c-0.43,0-0.86-0.15-1.19-0.43c-0.16-0.13-0.3-0.3-0.42-0.49l-1.85-3.21c-0.51-0.89-0.21-2.02,0.68-2.54
		c0.29-0.17,0.6-0.24,0.91-0.24c0.64,0,1.27,0.33,1.61,0.93l1.85,3.21c0.11,0.19,0.18,0.4,0.22,0.6c0.13,0.74-0.21,1.52-0.9,1.92
		C345.94,161.88,345.62,161.96,345.3,161.96 M127.74,153.2c-0.32,0-0.64-0.07-0.93-0.25c-0.88-0.51-1.19-1.64-0.68-2.53l1.85-3.21
		c0.34-0.59,0.97-0.93,1.6-0.93c0.32,0,0.64,0.08,0.93,0.25c0.89,0.51,1.19,1.64,0.68,2.53l-1.85,3.21
		C129,152.87,128.38,153.2,127.74,153.2 M337.89,149.13c-0.64,0-1.26-0.33-1.61-0.92l-1.86-3.21c-0.51-0.89-0.21-2.02,0.68-2.54
		c0.29-0.17,0.6-0.24,0.92-0.24c0.64,0,1.27,0.33,1.62,0.93l1.85,3.21c0.51,0.89,0.2,2.02-0.68,2.52
		C338.52,149.05,338.2,149.13,337.89,149.13 M135.15,140.38c-0.31,0-0.63-0.07-0.92-0.25c-0.37-0.21-0.64-0.54-0.79-0.91
		c-0.21-0.51-0.19-1.1,0.11-1.62l1.85-3.21c0.35-0.6,0.97-0.93,1.62-0.93c0.31,0,0.63,0.08,0.92,0.25c0.88,0.52,1.19,1.65,0.67,2.54
		l-1.72,2.97l-0.14,0.24C136.42,140.04,135.79,140.38,135.15,140.38 M330.49,136.29c-0.64,0-1.27-0.32-1.61-0.92l-1.85-3.21
		c-0.07-0.11-0.12-0.23-0.16-0.35c-0.27-0.81,0.07-1.73,0.84-2.17c0.29-0.17,0.61-0.25,0.92-0.25c0.64,0,1.26,0.33,1.6,0.93
		l0.87,1.5l0.99,1.71c0.51,0.9,0.21,2.02-0.68,2.54C331.12,136.22,330.8,136.29,330.49,136.29 M142.56,127.55
		c-0.31,0-0.63-0.08-0.93-0.25c-0.89-0.52-1.19-1.65-0.68-2.54l1.85-3.2c0.34-0.6,0.97-0.94,1.61-0.94c0.31,0,0.63,0.08,0.93,0.25
		c0.89,0.51,1.19,1.64,0.68,2.54l-1.85,3.2C143.82,127.2,143.2,127.55,142.56,127.55 M323.07,123.47c-0.64,0-1.26-0.34-1.61-0.93
		l-1.86-3.21c-0.51-0.88-0.21-2.02,0.69-2.53c0.29-0.17,0.61-0.25,0.92-0.25c0.64,0,1.26,0.33,1.6,0.93l1.85,3.21
		c0.51,0.89,0.21,2.02-0.67,2.53C323.71,123.39,323.39,123.47,323.07,123.47 M149.96,114.71c-0.31,0-0.63-0.07-0.92-0.25
		c-0.89-0.51-1.19-1.64-0.68-2.53l1.85-3.21c0.34-0.6,0.97-0.93,1.61-0.93c0.31,0,0.63,0.08,0.92,0.24
		c0.89,0.52,1.19,1.65,0.67,2.54l-1.85,3.21C151.23,114.38,150.61,114.71,149.96,114.71 M315.66,110.63c-0.64,0-1.26-0.33-1.6-0.93
		l-1.85-3.2c-0.51-0.9-0.21-2.02,0.68-2.54c0.29-0.17,0.61-0.24,0.92-0.24c0.64,0,1.27,0.33,1.61,0.93l1.85,3.2
		c0.51,0.9,0.21,2.03-0.68,2.54C316.3,110.55,315.98,110.63,315.66,110.63 M157.38,101.88c-0.31,0-0.63-0.08-0.93-0.25
		c-0.89-0.51-1.19-1.64-0.67-2.53l1.68-2.91c0.32-0.55,0.91-0.8,1.53-0.8c1.02,0,2.1,0.67,2.1,1.72c0,0.7-0.3,1.3-0.81,1.62
		l-1.29,2.23C158.64,101.55,158.02,101.88,157.38,101.88 M307.58,98.96h-3.7c-1.03,0-1.85-0.82-1.85-1.85
		c0-1.01,0.83-1.85,1.85-1.85h3.7c1.03,0,1.86,0.84,1.86,1.85C309.44,98.14,308.61,98.96,307.58,98.96 M292.76,98.96h-3.71
		c-1.02,0-1.85-0.82-1.85-1.85c0-1.01,0.83-1.85,1.85-1.85h3.71c1.03,0,1.85,0.84,1.85,1.85C294.61,98.14,293.79,98.96,292.76,98.96
		 M277.94,98.96h-3.71c-1.02,0-1.85-0.82-1.85-1.85c0-1.01,0.83-1.85,1.85-1.85h3.71c1.02,0,1.85,0.84,1.85,1.85
		C279.8,98.14,278.97,98.96,277.94,98.96 M263.13,98.96h-1.6h-2.11c-1.02,0-1.85-0.82-1.85-1.85c0-1.01,0.82-1.84,1.82-1.85
		c0.01,0,0.02,0,0.03,0h3.71c1.03,0,1.85,0.84,1.85,1.85C264.98,98.14,264.15,98.96,263.13,98.96 M248.31,98.96h-3.71
		c-1.02,0-1.85-0.82-1.85-1.85c0-1.01,0.83-1.85,1.85-1.85h3.71c1.03,0,1.85,0.84,1.85,1.85C250.16,98.14,249.34,98.96,248.31,98.96
		 M233.49,98.96h-1.42h-2.28c-1.03,0-1.85-0.82-1.85-1.85c0-1.01,0.83-1.85,1.85-1.85h2.28h1.42c1.02,0,1.85,0.84,1.85,1.85
		C235.35,98.14,234.51,98.96,233.49,98.96 M218.67,98.96h-3.71c-1.03,0-1.85-0.82-1.85-1.85c0-1.01,0.83-1.85,1.85-1.85h3.71
		c1.02,0,1.85,0.84,1.85,1.85C220.52,98.14,219.7,98.96,218.67,98.96 M203.86,98.96h-3.7c-0.78,0-1.44-0.47-1.72-1.15
		c-0.09-0.22-0.14-0.45-0.14-0.7c0-0.93,0.69-1.71,1.6-1.84c0.08-0.01,0.17-0.02,0.25-0.02h3.7c1.02,0,1.85,0.84,1.85,1.85
		C205.71,98.14,204.88,98.96,203.86,98.96 M189.03,98.96h-3.7c-1.03,0-1.85-0.82-1.85-1.85c0-1.01,0.83-1.85,1.85-1.85h3.7
		c1.03,0,1.85,0.84,1.85,1.85C190.89,98.14,190.06,98.96,189.03,98.96 M174.22,98.96h-3.7c-1.03,0-1.86-0.82-1.86-1.85
		c0-1.01,0.83-1.85,1.86-1.85h3.7c1.02,0,1.85,0.84,1.85,1.85C176.07,98.14,175.24,98.96,174.22,98.96"/>
	<path class="st2" d="M127.88,288.54h212.1L233.93,104.85L127.88,288.54L127.88,288.54z M344.44,293.68H123.42
		c-0.92,0-1.78-0.49-2.23-1.29c-0.46-0.8-0.46-1.78,0-2.59l110.5-191.39c0.92-1.59,3.55-1.59,4.47,0l110.51,191.39
		c0.45,0.8,0.45,1.78,0,2.59C346.21,293.19,345.35,293.68,344.44,293.68L344.44,293.68z"/>
	<path class="st2" d="M182.86,256.79h102.13l-51.06-88.46L182.86,256.79L182.86,256.79z M287.27,259.36h-0.05H180.63
		c-0.46,0-0.89-0.25-1.11-0.64c-0.23-0.4-0.23-0.9,0-1.3l53.29-92.3c0.46-0.8,1.77-0.8,2.24,0l53.14,92.04
		c0.24,0.23,0.38,0.55,0.38,0.91C288.57,258.78,287.99,259.36,287.27,259.36L287.27,259.36z"/>
	<path class="st2" d="M127.88,166.08l106.05,183.67l106.04-183.67H127.88L127.88,166.08z M233.93,357.48
		c-0.92,0-1.77-0.48-2.24-1.29l-110.5-191.4c-0.46-0.8-0.46-1.78,0-2.59c0.45-0.79,1.31-1.27,2.23-1.27h221.02
		c0.91,0,1.77,0.48,2.23,1.27c0.45,0.8,0.45,1.78,0,2.59L236.16,356.2C235.7,357,234.85,357.48,233.93,357.48L233.93,357.48z"/>
	<path class="st2" d="M182.86,197.83l51.07,88.44l51.06-88.44H182.86L182.86,197.83z M233.93,290.13c-0.46,0-0.89-0.24-1.12-0.64
		l-53.29-92.32c-0.23-0.4-0.23-0.88,0-1.29c0.23-0.4,0.66-0.65,1.11-0.65h106.59c0.47,0,0.88,0.25,1.12,0.65
		c0.23,0.4,0.23,0.89,0,1.29l-53.29,92.32C234.81,289.89,234.38,290.13,233.93,290.13L233.93,290.13z"/>
	<path class="st2" d="M287.23,197.83c-0.45,0-0.88-0.24-1.12-0.65c-0.35-0.61-0.14-1.4,0.47-1.76l57.21-33.03
		c0.61-0.35,1.4-0.14,1.76,0.47c0.35,0.62,0.14,1.4-0.48,1.76l-57.2,33.03C287.66,197.77,287.44,197.83,287.23,197.83L287.23,197.83
		z"/>
	<path class="st2" d="M233.93,167.05c-0.72,0-1.29-0.58-1.29-1.29V99.71c0-0.72,0.57-1.29,1.29-1.29c0.71,0,1.29,0.57,1.29,1.29
		v66.06C235.22,166.47,234.64,167.05,233.93,167.05L233.93,167.05z"/>
	<path class="st2" d="M180.63,197.83c-0.22,0-0.44-0.06-0.65-0.18l-57.21-33.03c-0.61-0.35-0.83-1.13-0.47-1.76
		c0.36-0.61,1.15-0.83,1.76-0.47l57.21,33.03c0.61,0.35,0.83,1.15,0.47,1.76C181.51,197.59,181.07,197.83,180.63,197.83
		L180.63,197.83z"/>
	<path class="st2" d="M123.42,292.4c-0.45,0-0.88-0.24-1.12-0.65c-0.35-0.61-0.14-1.4,0.47-1.76l55.26-31.9
		c0.61-0.36,1.4-0.14,1.76,0.47c0.35,0.63,0.14,1.4-0.47,1.77l-55.26,31.89C123.86,292.34,123.64,292.4,123.42,292.4L123.42,292.4z"
		/>
	<path class="st2" d="M233.93,356.2c-0.72,0-1.29-0.58-1.29-1.29V291.1c0-0.71,0.57-1.29,1.29-1.29c0.71,0,1.29,0.58,1.29,1.29
		v63.81C235.22,355.62,234.64,356.2,233.93,356.2L233.93,356.2z"/>
	<path class="st2" d="M344.43,292.4c-0.22,0-0.44-0.06-0.64-0.18l-57.21-33.03c-0.61-0.35-0.83-1.13-0.47-1.76
		c0.35-0.61,1.14-0.83,1.76-0.47l57.2,33.03c0.62,0.36,0.83,1.14,0.48,1.76C345.32,292.16,344.88,292.4,344.43,292.4L344.43,292.4z"
		/>
	<path class="st2" d="M225.28,241.54c0.11,0,0.22,0.02,0.32,0.08c0.16,0.1,0.28,0.26,0.31,0.44l8.04,42.76l8.04-42.76
		c0.03-0.18,0.15-0.34,0.31-0.44c0.17-0.09,0.36-0.11,0.54-0.05l41.13,14.47l-33.09-28.38c-0.14-0.13-0.22-0.31-0.22-0.5
		c0-0.19,0.08-0.37,0.22-0.48l32.63-28.12l-40.67,14.2c-0.18,0.07-0.37,0.05-0.54-0.05c-0.16-0.09-0.28-0.25-0.31-0.44l-8.04-43.01
		l-8.04,43.01c-0.03,0.19-0.14,0.34-0.31,0.44c-0.17,0.09-0.36,0.11-0.54,0.05l-41.06-14.42l33.1,28.21
		c0.15,0.12,0.23,0.31,0.23,0.5c0,0.18-0.08,0.36-0.22,0.48l-32.74,28.26l40.7-14.21L225.28,241.54L225.28,241.54z M233.95,288.95
		c-0.31,0-0.58-0.23-0.64-0.53l-8.53-45.38l-43.18,15.08c-0.29,0.11-0.62-0.02-0.77-0.28c-0.15-0.27-0.1-0.62,0.14-0.81l34.73-29.99
		l-35.16-29.98c-0.24-0.19-0.29-0.54-0.14-0.8c0.16-0.27,0.48-0.39,0.77-0.28l43.61,15.32l8.53-45.65c0.12-0.6,1.16-0.6,1.27,0
		l8.53,45.65l43.17-15.07c0.29-0.11,0.61,0.01,0.77,0.28c0.15,0.27,0.1,0.61-0.14,0.82l-34.64,29.85l35.13,30.13
		c0.23,0.2,0.29,0.54,0.14,0.81c-0.15,0.27-0.48,0.39-0.77,0.28l-43.65-15.35l-8.53,45.38
		C234.53,288.73,234.26,288.95,233.95,288.95L233.95,288.95z"/>
	<path class="st2" d="M192.41,138.09h-2.57c-0.71,0-1.29-0.57-1.29-1.29c0-0.71,0.58-1.29,1.29-1.29h2.57
		c0.72,0,1.29,0.58,1.29,1.29C193.7,137.52,193.13,138.09,192.41,138.09L192.41,138.09z M202.72,138.09h-2.58
		c-0.71,0-1.29-0.57-1.29-1.29c0-0.71,0.58-1.29,1.29-1.29h2.58c0.71,0,1.29,0.58,1.29,1.29
		C204.01,137.52,203.43,138.09,202.72,138.09L202.72,138.09z M213.02,138.09h-2.57c-0.71,0-1.29-0.57-1.29-1.29
		c0-0.71,0.57-1.29,1.29-1.29h2.57c0.71,0,1.29,0.58,1.29,1.29C214.31,137.52,213.73,138.09,213.02,138.09L213.02,138.09z
		 M223.33,138.09h-2.58c-0.71,0-1.29-0.57-1.29-1.29c0-0.71,0.57-1.29,1.29-1.29h2.58c0.71,0,1.28,0.58,1.28,1.29
		C224.61,137.52,224.03,138.09,223.33,138.09L223.33,138.09z M233.62,138.09h-2.57c-0.71,0-1.29-0.57-1.29-1.29
		c0-0.71,0.57-1.29,1.29-1.29h2.57c0.71,0,1.29,0.58,1.29,1.29C234.91,137.52,234.34,138.09,233.62,138.09L233.62,138.09z
		 M243.92,138.09h-2.57c-0.71,0-1.29-0.57-1.29-1.29c0-0.71,0.57-1.29,1.29-1.29h2.57c0.71,0,1.29,0.58,1.29,1.29
		C245.21,137.52,244.64,138.09,243.92,138.09L243.92,138.09z M254.23,138.09h-2.57c-0.71,0-1.29-0.57-1.29-1.29
		c0-0.71,0.57-1.29,1.29-1.29h2.57c0.71,0,1.29,0.58,1.29,1.29C255.51,137.52,254.94,138.09,254.23,138.09L254.23,138.09z
		 M264.53,138.09h-2.58c-0.71,0-1.29-0.57-1.29-1.29c0-0.71,0.57-1.29,1.29-1.29h2.58c0.71,0,1.29,0.58,1.29,1.29
		C265.82,137.52,265.25,138.09,264.53,138.09L264.53,138.09z M274.83,138.09h-2.58c-0.71,0-1.29-0.57-1.29-1.29
		c0-0.71,0.58-1.29,1.29-1.29h2.58c0.71,0,1.29,0.58,1.29,1.29C276.12,137.52,275.54,138.09,274.83,138.09L274.83,138.09z
		 M285.14,138.09h-2.58c-0.71,0-1.29-0.57-1.29-1.29c0-0.71,0.57-1.29,1.29-1.29h2.58c0.71,0,1.29,0.58,1.29,1.29
		C286.42,137.52,285.85,138.09,285.14,138.09L285.14,138.09z M180.71,140.12c-0.22,0-0.44-0.05-0.64-0.18
		c-0.62-0.35-0.83-1.13-0.47-1.75l1.17-2.03c0.58-1.01,2.52-0.53,2.52,0.64c0,0.48-0.21,0.91-0.57,1.13l-0.89,1.55
		C181.59,139.89,181.15,140.12,180.71,140.12L180.71,140.12z M290.75,146.21c-0.44,0-0.87-0.24-1.12-0.65l-1.28-2.23
		c-0.36-0.61-0.15-1.39,0.47-1.76c0.61-0.35,1.41-0.14,1.77,0.48l1.29,2.22c0.35,0.63,0.14,1.41-0.47,1.76
		C291.2,146.15,290.97,146.21,290.75,146.21L290.75,146.21z M175.56,149.04c-0.22,0-0.44-0.06-0.64-0.18
		c-0.62-0.35-0.83-1.13-0.47-1.76l1.29-2.23c0.35-0.61,1.14-0.82,1.76-0.47c0.62,0.37,0.83,1.14,0.48,1.77l-1.29,2.22
		C176.44,148.81,176,149.04,175.56,149.04L175.56,149.04z M295.91,155.13c-0.45,0-0.88-0.24-1.12-0.64l-1.29-2.24
		c-0.35-0.61-0.14-1.4,0.47-1.76c0.61-0.35,1.4-0.14,1.76,0.47l1.29,2.23c0.35,0.61,0.14,1.4-0.47,1.76
		C296.34,155.08,296.13,155.13,295.91,155.13L295.91,155.13z M170.41,157.96c-0.22,0-0.44-0.06-0.64-0.17
		c-0.61-0.37-0.83-1.14-0.47-1.77l1.29-2.22c0.36-0.63,1.15-0.84,1.76-0.48c0.62,0.37,0.83,1.14,0.47,1.77l-1.29,2.22
		C171.28,157.74,170.85,157.96,170.41,157.96L170.41,157.96z M301.06,164.05c-0.45,0-0.88-0.24-1.12-0.65l-1.29-2.23
		c-0.35-0.61-0.14-1.39,0.47-1.76c0.61-0.35,1.4-0.14,1.76,0.47l1.29,2.23c0.35,0.62,0.14,1.4-0.48,1.76
		C301.49,163.99,301.28,164.05,301.06,164.05L301.06,164.05z M165.25,166.88c-0.22,0-0.44-0.05-0.64-0.17
		c-0.61-0.37-0.83-1.14-0.47-1.76l1.29-2.24c0.35-0.61,1.14-0.83,1.76-0.47c0.62,0.35,0.83,1.15,0.47,1.76l-1.29,2.24
		C166.13,166.66,165.7,166.88,165.25,166.88L165.25,166.88z M306.2,172.97c-0.44,0-0.87-0.24-1.12-0.65l-1.28-2.23
		c-0.37-0.61-0.15-1.4,0.47-1.76c0.61-0.35,1.4-0.14,1.77,0.47l1.29,2.23c0.35,0.62,0.14,1.4-0.47,1.76
		C306.65,172.91,306.43,172.97,306.2,172.97L306.2,172.97z M160.1,175.8c-0.22,0-0.44-0.06-0.64-0.18
		c-0.62-0.35-0.83-1.13-0.47-1.76l1.29-2.23c0.35-0.61,1.14-0.83,1.75-0.47c0.62,0.37,0.83,1.14,0.48,1.77l-1.29,2.22
		C160.98,175.57,160.55,175.8,160.1,175.8L160.1,175.8z M311.36,181.9c-0.44,0-0.87-0.24-1.11-0.65l-1.29-2.23
		c-0.35-0.61-0.14-1.4,0.47-1.76c0.61-0.35,1.4-0.14,1.76,0.47l1.29,2.23c0.35,0.62,0.14,1.4-0.48,1.76
		C311.8,181.84,311.58,181.9,311.36,181.9L311.36,181.9z M154.95,184.73c-0.22,0-0.44-0.06-0.64-0.16
		c-0.62-0.37-0.83-1.15-0.47-1.77l1.29-2.23c0.36-0.61,1.15-0.83,1.76-0.46c0.62,0.35,0.83,1.13,0.48,1.75l-1.29,2.23
		C155.83,184.49,155.39,184.73,154.95,184.73L154.95,184.73z M316.51,190.82c-0.45,0-0.88-0.24-1.11-0.65l-1.29-2.23
		c-0.36-0.61-0.14-1.39,0.47-1.76c0.61-0.36,1.4-0.14,1.76,0.47l1.29,2.23c0.36,0.61,0.15,1.4-0.47,1.76
		C316.95,190.76,316.73,190.82,316.51,190.82L316.51,190.82z M149.8,193.65c-0.22,0-0.44-0.06-0.64-0.18
		c-0.62-0.35-0.83-1.14-0.47-1.76l1.29-2.23c0.36-0.61,1.15-0.83,1.76-0.47c0.61,0.37,0.83,1.14,0.47,1.76l-1.29,2.23
		C150.68,193.43,150.24,193.65,149.8,193.65L149.8,193.65z M321.66,199.74c-0.45,0-0.87-0.24-1.11-0.65l-1.29-2.23
		c-0.36-0.61-0.15-1.4,0.47-1.76c0.61-0.36,1.4-0.14,1.76,0.47l1.29,2.23c0.36,0.61,0.15,1.4-0.47,1.76
		C322.1,199.68,321.88,199.74,321.66,199.74L321.66,199.74z M144.65,202.57c-0.22,0-0.44-0.06-0.64-0.18
		c-0.62-0.35-0.83-1.14-0.47-1.76l1.29-2.23c0.35-0.61,1.14-0.83,1.76-0.47c0.61,0.37,0.83,1.14,0.47,1.77l-1.29,2.22
		C145.53,202.34,145.1,202.57,144.65,202.57L144.65,202.57z M326.81,208.66c-0.44,0-0.87-0.24-1.11-0.65l-1.29-2.23
		c-0.35-0.61-0.15-1.4,0.47-1.76c0.61-0.35,1.4-0.14,1.76,0.47l1.29,2.23c0.35,0.61,0.14,1.41-0.47,1.76
		C327.25,208.6,327.03,208.66,326.81,208.66L326.81,208.66z M139.5,211.49c-0.22,0-0.44-0.06-0.64-0.18
		c-0.61-0.35-0.83-1.14-0.47-1.76l1.29-2.23c0.35-0.61,1.14-0.83,1.75-0.47c0.62,0.35,0.83,1.14,0.47,1.76l-1.29,2.23
		C140.38,211.26,139.94,211.49,139.5,211.49L139.5,211.49z M331.97,217.58c-0.45,0-0.89-0.24-1.12-0.65l-1.29-2.23
		c-0.36-0.61-0.14-1.4,0.47-1.76c0.61-0.35,1.4-0.14,1.76,0.47l1.29,2.23c0.36,0.61,0.14,1.4-0.48,1.76
		C332.4,217.52,332.18,217.58,331.97,217.58L331.97,217.58z M134.35,220.42c-0.22,0-0.44-0.06-0.64-0.18
		c-0.61-0.35-0.83-1.15-0.47-1.76l1.29-2.23c0.36-0.61,1.15-0.83,1.76-0.47c0.61,0.35,0.83,1.14,0.47,1.76l-1.29,2.23
		C135.22,220.18,134.79,220.42,134.35,220.42L134.35,220.42z M337.11,226.51c-0.44,0-0.87-0.24-1.11-0.65l-1.29-2.23
		c-0.36-0.61-0.15-1.4,0.47-1.76c0.61-0.35,1.4-0.14,1.76,0.47l1.29,2.23c0.36,0.61,0.15,1.4-0.47,1.76
		C337.56,226.45,337.34,226.51,337.11,226.51L337.11,226.51z M130.37,229.34c-0.44,0-0.87-0.24-1.11-0.65l-0.58-1.01
		c-0.23-0.39-0.23-0.89,0-1.29l0.7-1.22c0.35-0.61,1.14-0.83,1.76-0.47c0.61,0.35,0.83,1.15,0.47,1.76l-0.33,0.58l0.21,0.36
		c0.35,0.61,0.14,1.4-0.47,1.76C130.81,229.28,130.59,229.34,130.37,229.34L130.37,229.34z M334.06,235.43
		c-0.22,0-0.44-0.06-0.64-0.18c-0.61-0.35-0.83-1.15-0.47-1.76l1.29-2.23c0.35-0.61,1.14-0.82,1.75-0.47
		c0.62,0.35,0.83,1.15,0.47,1.76l-1.29,2.23C334.94,235.19,334.5,235.43,334.06,235.43L334.06,235.43z M135.52,238.26
		c-0.44,0-0.88-0.24-1.11-0.65l-1.29-2.23c-0.36-0.62-0.15-1.4,0.47-1.76c0.61-0.35,1.41-0.14,1.77,0.47l1.29,2.23
		c0.35,0.61,0.14,1.4-0.47,1.76C135.96,238.2,135.74,238.26,135.52,238.26L135.52,238.26z M328.91,244.35
		c-0.22,0-0.44-0.06-0.64-0.18c-0.61-0.35-0.83-1.14-0.47-1.76l1.29-2.23c0.35-0.61,1.14-0.82,1.76-0.47
		c0.61,0.35,0.83,1.15,0.47,1.76l-1.29,2.23C329.79,244.11,329.35,244.35,328.91,244.35L328.91,244.35z M140.67,247.18
		c-0.44,0-0.88-0.23-1.11-0.65l-1.29-2.23c-0.36-0.61-0.15-1.4,0.47-1.76c0.61-0.35,1.41-0.14,1.77,0.47l1.29,2.23
		c0.35,0.61,0.14,1.41-0.47,1.76C141.11,247.12,140.89,247.18,140.67,247.18L140.67,247.18z M323.77,253.27
		c-0.22,0-0.45-0.06-0.65-0.18c-0.61-0.35-0.83-1.14-0.47-1.76l1.28-2.23c0.36-0.61,1.14-0.83,1.76-0.47
		c0.61,0.35,0.83,1.15,0.47,1.76l-1.29,2.23C324.64,253.04,324.21,253.27,323.77,253.27L323.77,253.27z M145.82,256.1
		c-0.45,0-0.88-0.24-1.11-0.65l-1.29-2.23c-0.35-0.61-0.14-1.4,0.47-1.76c0.61-0.35,1.41-0.14,1.76,0.47l1.29,2.23
		c0.35,0.61,0.14,1.41-0.48,1.76C146.26,256.05,146.04,256.1,145.82,256.1L145.82,256.1z M318.61,262.19
		c-0.21,0-0.44-0.06-0.64-0.18c-0.62-0.35-0.83-1.14-0.47-1.76l1.29-2.23c0.35-0.61,1.15-0.83,1.76-0.47
		c0.61,0.35,0.83,1.14,0.47,1.76l-1.29,2.23C319.49,261.96,319.06,262.19,318.61,262.19L318.61,262.19z M150.97,265.03
		c-0.45,0-0.88-0.24-1.11-0.65l-1.29-2.23c-0.35-0.61-0.14-1.4,0.47-1.76c0.61-0.35,1.4-0.14,1.76,0.47l1.29,2.23
		c0.35,0.61,0.14,1.4-0.48,1.76C151.41,264.97,151.19,265.03,150.97,265.03L150.97,265.03z M313.46,271.12
		c-0.22,0-0.44-0.06-0.64-0.18c-0.62-0.35-0.83-1.14-0.48-1.76l1.29-2.23c0.36-0.61,1.15-0.83,1.76-0.47
		c0.61,0.36,0.83,1.14,0.47,1.76l-1.29,2.23C314.34,270.88,313.9,271.12,313.46,271.12L313.46,271.12z M156.13,273.95
		c-0.45,0-0.88-0.24-1.12-0.65l-1.29-2.23c-0.35-0.61-0.15-1.41,0.47-1.76c0.61-0.35,1.4-0.14,1.76,0.47l1.29,2.23
		c0.35,0.61,0.14,1.4-0.48,1.76C156.56,273.89,156.34,273.95,156.13,273.95L156.13,273.95z M308.31,280.03
		c-0.22,0-0.44-0.05-0.65-0.17c-0.61-0.36-0.83-1.15-0.47-1.76l1.29-2.23c0.36-0.62,1.15-0.83,1.76-0.47
		c0.62,0.35,0.83,1.14,0.47,1.76l-1.29,2.23C309.18,279.8,308.75,280.03,308.31,280.03L308.31,280.03z M161.27,282.87
		c-0.44,0-0.87-0.24-1.11-0.65l-1.29-2.23c-0.35-0.61-0.15-1.4,0.47-1.76c0.61-0.35,1.4-0.14,1.76,0.47l1.29,2.23
		c0.35,0.61,0.15,1.4-0.47,1.76C161.71,282.81,161.49,282.87,161.27,282.87L161.27,282.87z M303.15,288.96
		c-0.21,0-0.44-0.06-0.64-0.18c-0.62-0.35-0.83-1.15-0.47-1.76l1.29-2.23c0.35-0.61,1.14-0.84,1.76-0.47
		c0.61,0.35,0.83,1.14,0.47,1.76l-1.29,2.23C304.03,288.73,303.6,288.96,303.15,288.96L303.15,288.96z M166.43,291.79
		c-0.45,0-0.88-0.24-1.12-0.65l-1.29-2.23c-0.36-0.61-0.14-1.4,0.47-1.76c0.61-0.37,1.4-0.14,1.76,0.47l1.29,2.23
		c0.35,0.61,0.15,1.4-0.47,1.76C166.87,291.74,166.64,291.79,166.43,291.79L166.43,291.79z M298.01,297.87
		c-0.22,0-0.44-0.05-0.64-0.17c-0.62-0.36-0.83-1.14-0.47-1.76l1.29-2.23c0.36-0.61,1.14-0.84,1.76-0.47
		c0.61,0.35,0.83,1.15,0.47,1.76l-1.29,2.23C298.89,297.65,298.45,297.87,298.01,297.87L298.01,297.87z M171.57,300.72
		c-0.44,0-0.87-0.24-1.11-0.65l-1.29-2.23c-0.36-0.61-0.15-1.4,0.47-1.76c0.61-0.35,1.4-0.14,1.76,0.47l1.29,2.23
		c0.35,0.61,0.14,1.4-0.48,1.76C172.02,300.66,171.79,300.72,171.57,300.72L171.57,300.72z M292.86,306.79
		c-0.22,0-0.44-0.05-0.64-0.17c-0.62-0.35-0.83-1.14-0.47-1.76l1.29-2.23c0.35-0.61,1.14-0.83,1.76-0.47
		c0.62,0.35,0.83,1.14,0.47,1.76l-1.29,2.23C293.73,306.57,293.3,306.79,292.86,306.79L292.86,306.79z M176.73,309.64
		c-0.44,0-0.87-0.23-1.12-0.65l-1.29-2.23c-0.36-0.61-0.15-1.4,0.47-1.76c0.61-0.35,1.4-0.14,1.76,0.47l1.29,2.23
		c0.35,0.61,0.15,1.4-0.47,1.76C177.17,309.58,176.94,309.64,176.73,309.64L176.73,309.64z M287.7,315.72
		c-0.22,0-0.44-0.05-0.64-0.16c-0.62-0.35-0.83-1.14-0.47-1.76l1.29-2.23c0.35-0.61,1.14-0.84,1.76-0.47
		c0.61,0.35,0.83,1.15,0.47,1.76l-1.29,2.23C288.58,315.49,288.15,315.72,287.7,315.72L287.7,315.72z M188.9,318.56h-2.58
		c-0.71,0-1.29-0.58-1.29-1.3c0-0.71,0.57-1.29,1.29-1.29h2.58c0.71,0,1.28,0.58,1.28,1.29
		C190.18,317.98,189.61,318.56,188.9,318.56L188.9,318.56z M199.2,318.56h-2.57c-0.71,0-1.29-0.58-1.29-1.3
		c0-0.71,0.58-1.29,1.29-1.29h2.57c0.71,0,1.29,0.58,1.29,1.29C200.48,317.98,199.91,318.56,199.2,318.56L199.2,318.56z
		 M209.5,318.56h-2.58c-0.71,0-1.29-0.58-1.29-1.3c0-0.71,0.58-1.29,1.29-1.29h2.58c0.71,0,1.29,0.58,1.29,1.29
		C210.79,317.98,210.21,318.56,209.5,318.56L209.5,318.56z M219.8,318.56h-2.57c-0.71,0-1.29-0.58-1.29-1.3
		c0-0.71,0.58-1.29,1.29-1.29h2.57c0.71,0,1.29,0.58,1.29,1.29C221.09,317.98,220.52,318.56,219.8,318.56L219.8,318.56z
		 M230.11,318.56h-2.58c-0.71,0-1.29-0.58-1.29-1.3c0-0.71,0.58-1.29,1.29-1.29h2.58c0.71,0,1.29,0.58,1.29,1.29
		C231.39,317.98,230.82,318.56,230.11,318.56L230.11,318.56z M240.41,318.56h-2.58c-0.71,0-1.29-0.58-1.29-1.3
		c0-0.71,0.58-1.29,1.29-1.29h2.58c0.71,0,1.29,0.58,1.29,1.29C241.69,317.98,241.12,318.56,240.41,318.56L240.41,318.56z
		 M250.71,318.56h-2.57c-0.71,0-1.29-0.58-1.29-1.3c0-0.71,0.57-1.29,1.29-1.29h2.57c0.72,0,1.29,0.58,1.29,1.29
		C252,317.98,251.42,318.56,250.71,318.56L250.71,318.56z M261.01,318.56h-2.58c-0.71,0-1.29-0.58-1.29-1.3
		c0-0.71,0.57-1.29,1.29-1.29h2.58c0.71,0,1.29,0.58,1.29,1.29C262.3,317.98,261.72,318.56,261.01,318.56L261.01,318.56z
		 M271.31,318.56h-2.57c-0.71,0-1.29-0.58-1.29-1.3c0-0.71,0.58-1.29,1.29-1.29h2.57c0.71,0,1.29,0.58,1.29,1.29
		C272.6,317.98,272.03,318.56,271.31,318.56L271.31,318.56z M281.61,318.56h-2.58c-0.71,0-1.29-0.58-1.29-1.3
		c0-0.71,0.58-1.29,1.29-1.29h2.58c0.71,0,1.29,0.58,1.29,1.29C282.9,317.98,282.32,318.56,281.61,318.56L281.61,318.56z
		 M181.88,318.56c-0.44,0-0.88-0.24-1.11-0.65l-1.29-2.23c-0.36-0.61-0.14-1.4,0.47-1.76c0.61-0.35,1.4-0.14,1.76,0.47l1.29,2.23
		c0.35,0.61,0.15,1.41-0.47,1.76C182.32,318.5,182.09,318.56,181.88,318.56L181.88,318.56z"/>
	<g>
		<path class="st3" d="M487.38,186.92c-2.05,22.39-8.93,44.63-8.93,68.92c0.15,15.95,5.56,32.19,18.88,32.19
			c22.54,0,37.17-43.46,48.29-74.04c8.93-24.29,14.19-48.29,24.14-48.29c7.02,0.15,9.07,9.8,9.22,18.88
			c0.15,11.41,0.15,28.1,0.15,40.53c0,24.73,3.37,44.19,10.54,44.19c6.29,0,15.22-16.54,22.39-37.31c0.44-1.32,1.61-2.19,2.49-2.05
			c0.88,0.15,1.46,1.17,0.88,3.51c-2.93,12.15-16.24,47.7-32.49,47.7c-16.1,0-17.12-33.66-17.12-57.36c0-18.29,2.34-43.9-0.29-43.9
			c-3.22,0-7.9,20.05-20.34,53.41c-8.2,21.95-26.63,66.58-54.14,66.58c-16.54,0-24.58-12.58-24.88-34.39
			c0-30,16.24-60.87,14.78-77.85c-0.58-10.24-4.68-12.15-8.05-13.9c-2.49-1.17-8.05-3.22-8.93-6.88
			c-1.61-6.29,4.98-13.61,11.27-12.29C486.5,156.92,488.11,178.58,487.38,186.92z"/>
		<path class="st3" d="M610.87,215.02c0-3.37,2.78-6.15,6.29-6.15c3.22,0,5.85,2.63,5.71,5.56c-0.44,11.71-0.15,48,2.63,48
			c1.46-3.37,8.05-22.39,14.34-36.73c2.2-4.98,8.05-14.93,13.61-14.93c6.88,0,9.37,8.19,10.98,14.49
			c3.95,15.07,7.02,37.31,14.05,37.31c5.56,0,12.29-18.88,15.66-27.51c0.73-1.76,1.61-3.22,3.07-2.63c0.88,0.44,0.73,2.2,0.15,4.83
			c-1.9,7.9-10.1,35.85-24.15,35.85c-17.85-0.29-19.61-52.39-23.85-52.39c-3.07,0-11.41,23.71-16.68,39.66
			c-3.51,10.68-5.12,18-9.07,19.46s-6.88,0-8.49-3.8c-1.17-2.78-1.9-6.58-2.19-8.78C610.73,250.14,610.58,233.02,610.87,215.02z"/>
		<path class="st3" d="M752.66,213.55c-3.37,29.27-2.49,59.41,7.02,59.41c9.22,0,20.63-32.63,23.12-39.36
			c0.59-1.46,1.32-2.34,2.05-2.2c0.59,0.15,1.02,1.02,0.88,2.93c-1.02,8.34-12.88,46.39-28.68,48.73c-12,1.76-16.97-11.56-18-30.29
			c-2.93,10.97-9.8,26.49-23.71,27.22c-14.93,0.88-21.95-15.22-22.24-28.97c-0.44-15.8,4.68-36.58,20.34-44.92
			c2.93-1.61,6.73-2.93,11.56-2.93c6.58,0.15,12.29,3.37,15.95,8.19c1.46-11.12,2.78-20.19,4.1-28.24
			c2.19-13.32,4.54-23.85,6.29-28.53c1.46-4.1,4.54-4.98,7.02-4.68c2.78,0.44,5.12,2.63,4.24,6.58
			C759.1,172.58,755,192.48,752.66,213.55z M738.03,224.82c-0.73-2.63-1.61-5.27-2.93-8.34c-1.76-4.39-4.54-8.49-9.66-8.19
			c-14.49,0.73-20.19,26.49-19.75,38.63c0.29,8.49,2.63,24,13.17,23.27c7.61-0.59,13.46-9.8,16.54-21.95
			C737.3,240.77,738.32,231.85,738.03,224.82z"/>
		<path class="st3" d="M793.48,242.53c-1.02,5.71-1.17,11.56-0.29,16.83c1.76,10.68,9.66,15.95,18,13.32
			c7.9-2.49,23.12-13.9,29.27-37.61c0.73-2.78,1.76-3.95,2.63-3.95c1.02,0.15,1.76,1.61,1.32,3.95
			c-2.34,13.17-9.66,26.19-19.02,35.41c-6,6-14.78,12.58-24.14,12.15c-7.17-0.29-13.17-4.68-16.97-10.83
			c-2.93-4.68-4.68-10.39-4.68-20.78c0.58-12.58,4.24-24,13.02-34.83c4.83-6,13.46-12.88,22.24-12.88c5.12,0,10.24,2.2,12,7.17
			c0.58,1.76,0.88,3.66,0.88,5.41c0,3.37-1.17,6.44-2.49,8.93c-5.56,9.95-24,17.71-30.58,17.71H793.48z M794.65,236.82
			c6.73-0.73,14.19-2.78,19.02-10.24c2.63-4.1,4.83-9.22,4.83-13.17c0-2.78-1.46-6.15-5.12-5.85c-3.37,0.29-7.46,5.12-10.24,9.66
			C799.78,222.77,796.56,229.65,794.65,236.82z"/>
		<path class="st3" d="M898.25,234.19c4.39,0,10.1-7.46,13.02-11.71c1.17-1.76,2.49-1.9,3.22-1.46s0.58,1.76-0.44,3.51
			c-3.37,5.56-12.88,17.56-22.1,17.71c-5.56,0-8.78-3.51-10.39-9.51c-2.2-8.49-1.76-19.46-3.51-19.46
			c-5.12,0-15.66,29.41-20.05,49.75c-0.88,4.24-2.63,16.97-8.93,17.71c-4.68,0.59-6.58-6-7.17-10.39
			c-1.61-12.15-2.05-24.88-2.63-43.9c-0.15-5.71-0.29-12.73,5.85-12.73c2.2,0,5.12,1.02,5.56,4.98c1.46,12.58,0.15,34.83,2.93,34.83
			c1.76-3.07,13.75-46.97,26.78-49.75c1.17-0.29,2.2-0.29,3.07-0.29c6.58,0.15,8.05,7.02,8.78,13.61
			C892.55,219.85,893.13,234.19,898.25,234.19z"/>
		<path class="st3" d="M957.37,159.41c0.88-2.19,3.07-3.22,5.12-3.37c1.9,0,3.95,1.02,5.12,2.78c10.54-2.05,21.95-4.54,34.24-6.73
			c7.02-1.32,16.54-2.63,24.58-2.63c8.93,0,16.1,1.76,16.1,7.46c0,2.93-3.51,5.56-6.58,5.56c-1.46,0-3.22-1.02-4.24-2.49
			c-2.05-2.78-5.41-4.83-12-4.83c-16.68,0-33.07,4.54-51.51,8.78c-5.27,26.34-9.8,64.53-10.54,89.41
			c-0.44,14.63-0.44,19.9,0.88,34.83c0.29,3.95-2.2,7.61-6,8.05c-3.22,0.29-6.73-2.05-8.05-6.15c-1.32-4.24-1.61-21.22-1.17-31.9
			c1.17-23.56,5.12-66,11.85-91.6c-4.83,0.88-26.34,4.24-37.61,4.24c-5.71,0-19.02-0.88-19.46-9.8c-0.29-4.68,3.07-10.24,8.49-10.24
			c2.05,0,4.97,0.58,7.46,3.37c3.37,3.51,3.07,7.61,16.24,8.19c2.34,0.15,4.54,0.15,6.88,0.15c6.15-0.15,12.73-0.88,19.75-1.9
			L957.37,159.41z"/>
		<path class="st3" d="M1000.68,152.39c4.54,0,6.73,2.34,5.56,8.34c-5.12,27.36-7.76,63.36-7.76,82.82c0,8.34,0,10.39,1.02,18.73
			c1.17-3.07,16.68-51.95,31.46-51.95c8.34,0,9.95,17.12,11.85,25.61c2.49,11.56,5.71,26.63,10.97,26.63
			c6.15,0,12.29-12.58,19.17-31.02c0.29-0.88,1.02-1.32,1.61-1.17c1.02,0.15,1.61,1.46,1.02,3.66
			c-7.02,28.1-19.32,40.09-26.34,40.09c-12.29,0-15.8-19.9-18.88-35.12c-1.9-8.93-2.34-18-4.97-18c-4.68,0-16.39,29.85-20.49,45.95
			c-1.32,5.27-2.63,13.61-7.61,13.61c-3.66,0-7.46-2.34-8.49-8.49c-1.9-10.98-2.2-16.1-2.05-29.12c0.15-21.22,2.34-59.26,8.19-85.75
			C995.85,153.41,998.34,152.39,1000.68,152.39z"/>
		<path class="st3" d="M1082.62,242.53c-1.02,5.71-1.17,11.56-0.29,16.83c1.76,10.68,9.66,15.95,18,13.32
			c7.9-2.49,23.12-13.9,29.27-37.61c0.73-2.78,1.76-3.95,2.63-3.95c1.02,0.15,1.76,1.61,1.32,3.95
			c-2.34,13.17-9.66,26.19-19.02,35.41c-6,6-14.78,12.58-24.14,12.15c-7.17-0.29-13.17-4.68-16.97-10.83
			c-2.93-4.68-4.68-10.39-4.68-20.78c0.58-12.58,4.24-24,13.02-34.83c4.83-6,13.46-12.88,22.24-12.88c5.12,0,10.24,2.2,12,7.17
			c0.58,1.76,0.88,3.66,0.88,5.41c0,3.37-1.17,6.44-2.49,8.93c-5.56,9.95-24,17.71-30.58,17.71H1082.62z M1083.79,236.82
			c6.73-0.73,14.19-2.78,19.02-10.24c2.63-4.1,4.83-9.22,4.83-13.17c0-2.78-1.46-6.15-5.12-5.85c-3.37,0.29-7.46,5.12-10.24,9.66
			C1088.91,222.77,1085.69,229.65,1083.79,236.82z"/>
		<path class="st3" d="M1245.33,228.77c1.02,0.29,1.9,2.78-0.44,6.88c-4.98,8.93-20.19,15.07-35.56,20.49
			c7.32,5.71,12.29,11.71,12.29,18.44c0,24.15-33.66,36.44-54.29,36.44c-15.95,0.15-25.02-7.02-25.02-17.56
			c0-14.05,21.51-27.22,46.68-35.85c-22.24-14.34-55.9-28.97-55.9-56.78c0-29.71,34.24-52.53,64.97-52.53
			c20.78,0,34.53,12.88,34.53,28.24c0,8.49-5.56,18-15.51,18.73c-4.83,0.29-9.95-2.78-9.95-8.19c0-3.22,1.46-7.46,4.54-9.22
			c3.51-1.9,7.46-1.17,7.32-7.46c-0.29-12.58-10.1-17.12-24.15-17.12c-18.73,0-48.73,18.29-48.73,42.73
			c0,26.19,36.44,41.12,58.68,56.78c16.54-5.27,32.05-11.12,37.46-20.93C1243.14,230.09,1244.16,228.48,1245.33,228.77z
			 M1194.12,260.97c-19.32,6.58-42.14,17.56-42.14,32.05c0,8.49,7.46,12.73,17.85,12.73c12.88,0,38.19-10.54,38.19-25.9
			C1208.02,272.82,1202.31,266.82,1194.12,260.97z"/>
		<path class="st3" d="M1248.84,155.46c0.44-2.93,3.51-5.27,6.15-5.12c2.78,0.15,5.71,3.22,5.27,6.44
			c-3.8,27.22-6.58,47.27-6.73,73.17c0,8.19,0.29,15.95,1.46,23.41c2.49-21.07,16.1-55.9,35.27-55.9c8.19,0,13.17,8.05,11.41,17.12
			c-2.19,10.68-12.58,20.19-21.22,26.34c-1.9,1.32-2.49,1.76-2.49,3.37c0,5.27,12.44,15.95,19.61,15.95
			c5.56,0,10.97-7.46,14.05-13.76c3.07-6,4.97-11.27,7.32-17.56c1.17-3.22,3.95-3.37,3.22,0.59c-2.78,14.19-14.78,42.88-28.83,42.88
			c-10.24,0-19.61-11.41-24.14-21.22c-0.58-1.32-0.88-2.49-0.88-3.51c0.15-2.78,2.2-5.12,5.71-8.05
			c7.76-6.73,14.78-16.54,14.78-25.02c0-3.95-1.46-8.19-4.83-8.19c-6.44,0-15.51,17.12-20.49,35.56c-3.37,12-4.68,24.73-3.51,31.31
			c0.73,1.46,0.88,2.05,0.88,2.49c0.29,2.78-1.9,4.39-4.54,4.68c-2.78,0.29-6.29-1.02-7.9-4.1c-6.29-12-7.02-33.36-6.73-47.12
			C1242.11,203.02,1244.45,181.36,1248.84,155.46z"/>
	</g>
	<g>
		<defs>
			<rect id="SVGID_3_" x="71.27" y="40.17" width="1340.09" height="374.36"/>
		</defs>
		<clipPath id="SVGID_4_">
			<use xlink:href="#SVGID_3_"  style="overflow:visible;"/>
		</clipPath>
		<g class="st4">
			<path class="st3" d="M1328.16,249.55c0.88,7.02,2.78,10.68,7.9,10.68c8.63,0,25.61-33.66,31.32-47.7
				c1.61-3.95,4.54-4.98,6.73-4.98c3.66,0,6.73,2.34,7.76,8.19c1.9,11.12,3.66,24.44,4.24,37.61c7.46-5.85,15.07-12.88,20.34-21.95
				c1.17-1.9,2.49-3.07,3.8-2.78c1.17,0.29,1.61,2.49,0.44,4.68c-3.95,7.46-12.44,16.54-24.44,26.49c0.15,2.49,0,4.98,0,7.46
				c-0.44,20.78,0.73,90.73-39.66,90.73c-15.95,0.44-24.58-16.39-23.85-31.75c1.32-25.75,24.44-42.58,50.92-63.65
				c0.15-15.36-1.76-31.02-4.54-42.14c-4.1,9.07-20.63,49.31-38.05,50.34c-9.66,0.59-14.63-10.39-14.93-24.73
				c-0.15-8.78,1.46-19.61,3.66-27.36c1.02-3.37,3.37-5.85,7.76-4.98c3.07,0.73,4.24,3.22,3.8,6.88
				C1330.06,230.09,1326.99,239.16,1328.16,249.55z M1373.52,269.6c-23.41,17.12-42.88,38.78-42.88,59.7c0,10.97,6,21.8,15.51,21.8
				C1370.74,351.11,1372.93,286.57,1373.52,269.6z"/>
		</g>
	</g>
</g>
</svg>
